<svg width="46" height="32" viewBox="0 0 46 32" fill="none" xmlns="http://www.w3.org/2000/svg">
<path d="M29.0291 26.1C28.2712 24.3047 27.1713 22.674 25.7907 21.2987C24.4143 19.9194 22.7839 18.8197 20.9894 18.0603C20.9733 18.0522 20.9572 18.0482 20.9412 18.0402C23.4443 16.2321 25.0715 13.2871 25.0715 9.96429C25.0715 4.45982 20.6117 0 15.1072 0C9.60278 0 5.14296 4.45982 5.14296 9.96429C5.14296 13.2871 6.77019 16.2321 9.27331 18.0442C9.25724 18.0522 9.24117 18.0563 9.2251 18.0643C7.4251 18.8237 5.80992 19.9125 4.42376 21.3027C3.04447 22.6791 1.94476 24.3095 1.18537 26.104C0.439341 27.8608 0.0369922 29.7444 0.000100471 31.6527C-0.000971916 31.6956 0.00654962 31.7382 0.0222221 31.7782C0.0378946 31.8181 0.0614008 31.8545 0.0913557 31.8852C0.121311 31.9159 0.157108 31.9403 0.196639 31.9569C0.236169 31.9736 0.278634 31.9822 0.321529 31.9821H2.73224C2.90903 31.9821 3.04965 31.8415 3.05367 31.6688C3.13403 28.567 4.37956 25.6621 6.58135 23.4603C8.85947 21.1821 11.8849 19.9286 15.1072 19.9286C18.3296 19.9286 21.355 21.1821 23.6331 23.4603C25.8349 25.6621 27.0805 28.567 27.1608 31.6688C27.1648 31.8455 27.3055 31.9821 27.4822 31.9821H29.893C29.9359 31.9822 29.9783 31.9736 30.0178 31.9569C30.0574 31.9403 30.0932 31.9159 30.1231 31.8852C30.1531 31.8545 30.1766 31.8181 30.1923 31.7782C30.2079 31.7382 30.2155 31.6956 30.2144 31.6527C30.1742 29.7321 29.7764 27.8638 29.0291 26.1ZM15.1072 16.875C13.263 16.875 11.5273 16.1558 10.2215 14.85C8.91573 13.5442 8.19653 11.8085 8.19653 9.96429C8.19653 8.12009 8.91573 6.38438 10.2215 5.07857C11.5273 3.77277 13.263 3.05357 15.1072 3.05357C16.9514 3.05357 18.6872 3.77277 19.993 5.07857C21.2988 6.38438 22.018 8.12009 22.018 9.96429C22.018 11.8085 21.2988 13.5442 19.993 14.85C18.6872 16.1558 16.9514 16.875 15.1072 16.875Z" fill="black" fill-opacity="0.3"/>
<path d="M44.4733 26.402C43.8712 24.9987 42.9976 23.7239 41.9009 22.6489C40.8077 21.5707 39.5126 20.7111 38.0872 20.1175C38.0744 20.1112 38.0616 20.108 38.0489 20.1018C40.0371 18.6884 41.3297 16.3863 41.3297 13.7889C41.3297 9.48618 37.7872 6 33.4148 6C29.0425 6 25.5 9.48618 25.5 13.7889C25.5 16.3863 28.7808 20.1049 28.7808 20.1049C28.7681 20.1112 28.7553 20.1143 28.7425 20.1206L26.5 22C27 22.5 27.915 24 27.915 24C27.915 24 30.8553 21.5779 33.4148 21.5779C35.9744 21.5779 38.3776 22.5578 40.1871 24.3386C41.9361 26.0597 42.9254 28.3304 42.9892 30.755C42.9924 30.8932 43.1041 31 43.2446 31H45.1594C45.1935 31 45.2272 30.9933 45.2586 30.9803C45.29 30.9673 45.3185 30.9482 45.3423 30.9242C45.3661 30.9002 45.3847 30.8718 45.3972 30.8405C45.4096 30.8093 45.4156 30.776 45.4148 30.7425C45.3828 29.2412 45.0669 27.7808 44.4733 26.402ZM33.4148 19.191C31.95 19.191 30.5712 18.6288 29.534 17.608C28.4968 16.5873 27.9255 15.2305 27.9255 13.7889C27.9255 12.3474 28.4968 10.9906 29.534 9.96985C30.5712 8.94912 31.95 8.38693 33.4148 8.38693C34.8797 8.38693 36.2584 8.94912 37.2957 9.96985C38.3329 10.9906 38.9042 12.3474 38.9042 13.7889C38.9042 15.2305 38.3329 16.5873 37.2957 17.608C36.2584 18.6288 34.8797 19.191 33.4148 19.191Z" fill="black" fill-opacity="0.3"/>
</svg>
