<svg width="36" height="32" viewBox="0 0 36 32" fill="none" xmlns="http://www.w3.org/2000/svg">
<path d="M35.2535 15.7431L19.9101 1.30999L18.8816 0.342049C18.6473 0.122961 18.3304 0 18.0001 0C17.6698 0 17.3529 0.122961 17.1185 0.342049L0.746686 15.7431C0.506573 15.9682 0.316807 16.2363 0.18859 16.5316C0.0603737 16.8268 -0.00369539 17.1433 0.000164591 17.4622C0.016048 18.7777 1.17951 19.8279 2.57725 19.8279H4.26487V32H31.7353V19.8279H33.4586C34.1376 19.8279 34.7769 19.5775 35.2574 19.1253C35.494 18.9033 35.6815 18.6394 35.8089 18.3488C35.9364 18.0582 36.0013 17.7467 36 17.4323C36 16.797 35.7339 16.1953 35.2535 15.7431ZM20.2238 29.3092H15.7764V21.6853H20.2238V29.3092ZM28.8763 17.1371V29.3092H22.7651V20.7884C22.7651 19.9624 22.0543 19.2935 21.1768 19.2935H14.8234C13.9458 19.2935 13.235 19.9624 13.235 20.7884V29.3092H7.12389V17.1371H3.31186L18.004 3.32061L18.9213 4.18391L32.6923 17.1371H28.8763Z" fill="black" fill-opacity="0.3"/>
</svg>
