<svg width="36" height="28" viewBox="0 0 36 28" fill="none" xmlns="http://www.w3.org/2000/svg">
<path d="M34.7143 11.2628H30.375V6.69855C30.375 5.98739 29.8004 5.41283 29.0893 5.41283H16.433L11.7201 0.904799C11.6601 0.848661 11.5812 0.817111 11.4991 0.816406H1.28571C0.574554 0.816406 0 1.39096 0 2.10212V25.8878C0 26.599 0.574554 27.1735 1.28571 27.1735H29.3304C29.8527 27.1735 30.3268 26.8561 30.5237 26.37L35.9076 13.0307C35.9679 12.878 36 12.7133 36 12.5485C36 11.8374 35.4254 11.2628 34.7143 11.2628ZM2.89286 3.70926H10.4665L15.2719 8.30569H27.4821V11.2628H6.99107C6.46875 11.2628 5.99464 11.5802 5.79777 12.0664L2.89286 19.2664V3.70926ZM28.4183 24.2807H3.81696L7.96741 13.995H32.5728L28.4183 24.2807Z" fill="black" fill-opacity="0.3"/>
</svg>
