<svg width="28" height="28" viewBox="0 0 28 28" fill="none" xmlns="http://www.w3.org/2000/svg">
<path d="M26.7273 0H1.27273C0.56875 0 0 0.446875 0 1V27C0 27.5531 0.56875 28 1.27273 28H14H26.7273C27.4312 28 28 27.5531 28 27V1C28 0.446875 27.4312 0 26.7273 0ZM16.3864 2.25H20.2045V8.80937L18.3551 7.75L16.3864 8.85625V2.25ZM25.1364 25.75H2.86364V2.25H14V11.5281C14 11.6312 14.0398 11.7344 14.1193 11.8188C14.1676 11.8724 14.2289 11.918 14.2998 11.9528C14.3706 11.9877 14.4496 12.0112 14.5321 12.022C14.6146 12.0327 14.6989 12.0305 14.7803 12.0155C14.8617 12.0004 14.9385 11.9729 15.0063 11.9344L18.3392 10.0625L21.5767 11.9187C21.6841 11.9812 21.8153 12.0156 21.9506 12.0156C22.3006 12.0156 22.5869 11.7906 22.5869 11.5156V2.25H25.1324V14V25.75H25.1364Z" fill="black" fill-opacity="0.3"/>
</svg>
